<svg width="40" height="40" viewBox="0 0 40 40" fill="none" xmlns="http://www.w3.org/2000/svg">
<path d="M20.0137 11.0293C15.0449 11.0293 11.0371 15.0371 11.0371 20.0059C11.0371 24.9746 15.0449 28.9824 20.0137 28.9824C24.9824 28.9824 28.9902 24.9746 28.9902 20.0059C28.9902 15.0371 24.9824 11.0293 20.0137 11.0293ZM20.0137 25.8418C16.8027 25.8418 14.1777 23.2246 14.1777 20.0059C14.1777 16.7871 16.7949 14.1699 20.0137 14.1699C23.2324 14.1699 25.8496 16.7871 25.8496 20.0059C25.8496 23.2246 23.2246 25.8418 20.0137 25.8418ZM31.4512 10.6621C31.4512 11.8262 30.5137 12.7559 29.3574 12.7559C28.1933 12.7559 27.2637 11.8184 27.2637 10.6621C27.2637 9.50586 28.2012 8.56836 29.3574 8.56836C30.5137 8.56836 31.4512 9.50586 31.4512 10.6621ZM37.3965 12.7871C37.2636 9.98242 36.623 7.49805 34.5683 5.45117C32.5215 3.4043 30.0371 2.76367 27.2324 2.62305C24.3418 2.45898 15.6777 2.45898 12.7871 2.62305C9.99023 2.75586 7.50586 3.39648 5.45117 5.44336C3.39648 7.49023 2.76367 9.97461 2.62305 12.7793C2.45898 15.6699 2.45898 24.334 2.62305 27.2246C2.75586 30.0293 3.39648 32.5137 5.45117 34.5605C7.50586 36.6074 9.98242 37.248 12.7871 37.3887C15.6777 37.5527 24.3418 37.5527 27.2324 37.3887C30.0371 37.2559 32.5215 36.6152 34.5683 34.5605C36.6152 32.5137 37.2558 30.0293 37.3965 27.2246C37.5605 24.334 37.5605 15.6777 37.3965 12.7871ZM33.6621 30.3262C33.0527 31.8574 31.873 33.0371 30.334 33.6543C28.0293 34.5684 22.5605 34.3574 20.0137 34.3574C17.4668 34.3574 11.9902 34.5605 9.69335 33.6543C8.1621 33.0449 6.98242 31.8652 6.36523 30.3262C5.45117 28.0215 5.66211 22.5527 5.66211 20.0059C5.66211 17.459 5.45898 11.9824 6.36523 9.68555C6.97461 8.1543 8.15429 6.97461 9.69335 6.35742C11.998 5.44336 17.4668 5.6543 20.0137 5.6543C22.5605 5.6543 28.0371 5.45117 30.334 6.35742C31.8652 6.9668 33.0449 8.14648 33.6621 9.68555C34.5761 11.9902 34.3652 17.459 34.3652 20.0059C34.3652 22.5527 34.5761 28.0293 33.6621 30.3262Z" fill="black"/>
</svg>
