<svg fill="none" height="40" viewBox="0 0 40 40" width="40" xmlns="http://www.w3.org/2000/svg"><path clip-rule="evenodd" d="m7.82331 6.29922h-5.2738l-.03982-.00045c-.83726-.02113-1.50969-.70647-1.50969-1.54906 0-.85595.69357-1.54951 1.54951-1.54951l6.5506.00022c.71181.01557 1.32369.51517 1.47899 1.21296l.6958 3.13127h26.1755c.4862 0 .9442.22822 1.2374.61682.2925.38794.3862.89087.2525 1.35844l-4.3445 15.20589c-.1901.6649-.7981 1.1238-1.4899 1.1238h-19.6874l-.0093.0002c-.3428.0009-.6211.2796-.6211.6224 0 .3379.2708.6142.6006.6224 0 0 .009.0001.0157.0003.0051 0 .009.0001.0064.0001h19.6951c.856 0 1.5495.6936 1.5495 1.5495 0 .7681-.5583 1.4054-1.2914 1.5282.7905.6829 1.2914 1.6921 1.2914 2.8163 0 2.0522-1.6696 3.7218-3.7216 3.7218-2.0522 0-3.7218-1.6696-3.7218-3.7218 0-1.1124.4907-2.1125 1.267-2.795h-10.4413c.7765.6825 1.2672 1.6826 1.2672 2.795 0 2.0522-1.6696 3.7218-3.7218 3.7218s-3.7219-1.6696-3.7219-3.7218c0-1.1178.4954-2.1221 1.2784-2.8047-1.2094-.0875-2.2604-.7552-2.8748-1.7253-.36457-.5754-.57567-1.257-.57567-1.9868 0-1.3894.76537-2.6032 1.89647-3.242zm4.13999 4.34448 2.6904 12.1069h17.2833l3.4592-12.1069zm4.8081 22.3431c0 .6553-.5313 1.1867-1.1867 1.1867-.6555 0-1.1868-.5314-1.1868-1.1867 0-.6554.5313-1.1867 1.1868-1.1867.6554 0 1.1867.5313 1.1867 1.1867zm15.3441 0c0 .6553-.5312 1.1867-1.1867 1.1867-.6554 0-1.1867-.5314-1.1867-1.1867 0-.6554.5313-1.1867 1.1867-1.1867.6555 0 1.1867.5313 1.1867 1.1867z" fill="#000" fill-rule="evenodd"/></svg>