<svg width="24" height="24" viewBox="0 0 24 24" fill="none" xmlns="http://www.w3.org/2000/svg">
<path d="M21.1358 7.65545C21.1504 7.85976 21.1504 8.06411 21.1504 8.26841C21.1504 14.5 16.4074 21.6803 7.7386 21.6803C5.0679 21.6803 2.58694 20.9067 0.5 19.5642C0.879457 19.6079 1.24427 19.6225 1.63832 19.6225C3.84198 19.6225 5.87057 18.8782 7.4905 17.6086C5.41816 17.5648 3.68147 16.2075 3.08311 14.3395C3.37501 14.3832 3.66687 14.4124 3.97337 14.4124C4.39658 14.4124 4.81984 14.354 5.21385 14.2519C3.05395 13.8141 1.43397 11.9169 1.43397 9.62564V9.56729C2.06149 9.91755 2.79125 10.1365 3.56467 10.1656C2.295 9.31914 1.46317 7.87436 1.46317 6.23982C1.46317 5.3642 1.69663 4.56154 2.10529 3.86102C4.42574 6.72143 7.91371 8.58943 11.8248 8.79378C11.7519 8.44352 11.7081 8.07871 11.7081 7.71385C11.7081 5.1161 13.8096 3 16.4219 3C17.7792 3 19.0051 3.56916 19.8661 4.48858C20.9314 4.28428 21.953 3.89022 22.8579 3.35026C22.5076 4.44483 21.7633 5.36425 20.7855 5.94796C21.7342 5.84586 22.6536 5.58311 23.5 5.2183C22.858 6.15227 22.0553 6.98409 21.1358 7.65545Z" fill="black"/>
</svg>
