<svg width="24" height="24" viewBox="0 0 24 24" fill="none" xmlns="http://www.w3.org/2000/svg">
<path d="M12.0082 6.61758C9.02695 6.61758 6.62226 9.02227 6.62226 12.0035C6.62226 14.9848 9.02695 17.3895 12.0082 17.3895C14.9894 17.3895 17.3941 14.9848 17.3941 12.0035C17.3941 9.02227 14.9894 6.61758 12.0082 6.61758ZM12.0082 15.5051C10.0816 15.5051 8.50664 13.9348 8.50664 12.0035C8.50664 10.0723 10.0769 8.50195 12.0082 8.50195C13.9394 8.50195 15.5098 10.0723 15.5098 12.0035C15.5098 13.9348 13.9348 15.5051 12.0082 15.5051ZM18.8707 6.39727C18.8707 7.0957 18.3082 7.65352 17.6144 7.65352C16.916 7.65352 16.3582 7.09102 16.3582 6.39727C16.3582 5.70352 16.9207 5.14102 17.6144 5.14102C18.3082 5.14102 18.8707 5.70352 18.8707 6.39727ZM22.4379 7.67227C22.3582 5.98945 21.9738 4.49883 20.741 3.2707C19.5129 2.04258 18.0223 1.6582 16.3394 1.57383C14.6051 1.47539 9.40664 1.47539 7.67226 1.57383C5.99414 1.65352 4.50351 2.03789 3.2707 3.26602C2.03789 4.49414 1.6582 5.98477 1.57383 7.66758C1.47539 9.40195 1.47539 14.6004 1.57383 16.3348C1.65352 18.0176 2.03789 19.5082 3.2707 20.7363C4.50351 21.9645 5.98945 22.3488 7.67226 22.4332C9.40664 22.5316 14.6051 22.5316 16.3394 22.4332C18.0223 22.3535 19.5129 21.9691 20.741 20.7363C21.9691 19.5082 22.3535 18.0176 22.4379 16.3348C22.5363 14.6004 22.5363 9.40664 22.4379 7.67227ZM20.1973 18.1957C19.8316 19.1145 19.1238 19.8223 18.2004 20.1926C16.8176 20.741 13.5363 20.6145 12.0082 20.6145C10.4801 20.6145 7.19414 20.7363 5.81601 20.1926C4.89726 19.827 4.18945 19.1191 3.81914 18.1957C3.2707 16.8129 3.39726 13.5316 3.39726 12.0035C3.39726 10.4754 3.27539 7.18945 3.81914 5.81133C4.18476 4.89258 4.89258 4.18477 5.81601 3.81445C7.19882 3.26602 10.4801 3.39258 12.0082 3.39258C13.5363 3.39258 16.8223 3.2707 18.2004 3.81445C19.1191 4.18008 19.8269 4.88789 20.1973 5.81133C20.7457 7.19414 20.6191 10.4754 20.6191 12.0035C20.6191 13.5316 20.7457 16.8176 20.1973 18.1957Z" fill="black"/>
</svg>
