<svg width="24" height="24" viewBox="0 0 24 24" fill="none" xmlns="http://www.w3.org/2000/svg">
<path fill-rule="evenodd" clip-rule="evenodd" d="M9.73649 8.61508V7.00896C9.73649 6.71627 9.75164 6.61866 9.7967 6.46851C9.91714 6.05575 10.3238 5.74808 10.8055 5.74808C11.2872 5.74808 11.6937 6.06324 11.8141 6.46851C11.8593 6.61866 11.8745 6.71627 11.8745 7.00896V9.48566C11.8745 9.63582 11.8745 9.78584 11.8443 9.92102C11.7616 10.2962 11.4228 10.6341 11.0464 10.7166C10.9109 10.7465 10.7603 10.7465 10.6097 10.7465H8.12554C7.83197 10.7465 7.73407 10.7316 7.58346 10.6865C7.17697 10.5664 6.86087 10.1612 6.86087 9.68088C6.86087 9.20046 7.17697 8.79519 7.58346 8.67511C7.73407 8.63005 7.83197 8.61508 8.12554 8.61508H9.73649ZM18.5893 19.8432H5.26494V8.14228C5.26494 7.99213 5.31764 7.86457 5.42305 7.75947L8.87831 4.31445C8.98372 4.20949 9.11166 4.15694 9.26227 4.15694H18.5893V19.8432ZM20.1025 1.51498C20.0348 1.50749 19.9444 1.5 19.7713 1.5H8.90835C8.78805 1.5 8.66762 1.50749 8.58474 1.51498C8.08785 1.56004 7.64368 1.79269 7.28989 2.14542L3.24736 6.17582C2.89371 6.52868 2.66022 6.97139 2.61516 7.46678C2.60752 7.54928 2.60001 7.66935 2.60001 7.78942V21.0214C2.60001 21.1941 2.60752 21.2842 2.61516 21.3517C2.67524 21.9146 3.18715 22.4249 3.75176 22.4849C3.81962 22.4925 3.90987 22.5 4.08301 22.5H19.7713C19.9444 22.5 20.0348 22.4925 20.1025 22.4849C20.6671 22.4249 21.179 21.9146 21.2392 21.3517C21.2466 21.2842 21.2543 21.1941 21.2543 21.0214V2.97856C21.2543 2.80594 21.2466 2.71582 21.2392 2.6483C21.179 2.08538 20.6671 1.57501 20.1025 1.51498Z" fill="black"/>
</svg>
