<svg width="24" height="24" viewBox="0 0 24 24" fill="none" xmlns="http://www.w3.org/2000/svg">
<path fill-rule="evenodd" clip-rule="evenodd" d="M21.3765 4.50159C22.4091 4.77758 23.2224 5.59071 23.4984 6.62334C24 8.49497 24 12.4 24 12.4C24 12.4 24 16.3051 23.4984 18.1766C23.2224 19.2092 22.4091 20.0225 21.3765 20.2985C19.5048 20.8001 11.9999 20.8001 11.9999 20.8001C11.9999 20.8001 4.49497 20.8001 2.62334 20.2985C1.59071 20.0225 0.777379 19.2092 0.501394 18.1766C0 16.3051 0 12.4 0 12.4C0 12.4 0 8.49497 0.501394 6.62334C0.777379 5.59071 1.59071 4.77758 2.62334 4.50159C4.49497 4 11.9999 4 11.9999 4C11.9999 4 19.5048 4 21.3765 4.50159ZM15.838 12.4015L9.60281 16.0015V8.80141L15.838 12.4015Z" fill="black"/>
</svg>
